<svg width="210" height="53" viewBox="0 0 210 53" fill="none" xmlns="http://www.w3.org/2000/svg">
<path d="M67.8441 0C72.0312 1.11498 74.6326 1.76859 75.6483 1.96083C76.436 4.4407 76.8299 6.89173 76.8299 9.31388C76.8299 12.2936 76.2391 15.1003 75.0576 17.7339C73.8554 18.6183 72.6116 19.6467 71.3265 20.8194C70.062 21.9728 68.6318 23.405 67.0357 25.1158C65.4396 26.8076 63.8746 28.5761 62.3406 30.4216C57.3451 36.4002 52.93 42.4557 49.0953 48.5882L39.6431 53L38.7725 39.6202C38.503 35.5256 38.0159 32.0461 37.3111 29.1817C36.6271 26.452 35.7358 24.1162 34.6372 22.1747C33.58 20.3484 32.0461 18.3876 30.0355 16.2922C22.9257 12.8319 15.1317 11.1018 6.65382 11.1018C4.56025 11.1018 2.34231 11.2747 0 11.6207C2.96417 7.7568 4.96445 4.89245 6.00087 3.02775C10.2917 1.0477 14.7172 0.0576714 19.2774 0.0576714C23.5475 0.0576714 27.859 0.874686 32.2119 2.50871C34.3055 3.27765 36.6996 4.41186 39.3944 5.91132C42.0891 7.39155 44.9703 9.18894 48.038 11.3036C48.121 12.5339 48.1624 13.4374 48.1624 14.0141C48.1624 15.1868 47.9345 18.5702 47.4785 24.1643C47.0431 29.7584 46.5352 35.7274 45.9549 42.0712C53.2512 32.6516 59.7911 25.9906 65.5743 22.0881L65.2945 13.4662L59.1381 14.216C59.5734 13.2933 60.4337 11.7746 61.7188 9.65991C63.0248 7.52612 65.0664 4.30613 67.8441 0ZM78.1046 21.9151L78.9442 18.3106C83.1105 17.6763 87.8884 16.1769 93.2778 13.8123V18.8873L93.1845 21.0501C93.1845 21.3384 93.195 21.598 93.2157 21.8287C93.2363 22.463 93.2468 23.3377 93.2468 24.4527C93.2468 24.9525 93.2571 25.3562 93.2778 25.6638L93.4955 30.7388C93.5369 31.8346 93.6924 34.2953 93.9619 38.1208C89.6918 38.8128 85.9815 39.3319 82.8307 39.6779C83.1209 37.2557 83.266 33.6512 83.266 28.8646L83.1416 21.6268C82.271 21.9536 81.3383 22.1169 80.3433 22.1169C79.5971 22.1169 78.8509 22.0497 78.1046 21.9151ZM87.3081 0.663221C88.8627 0.663221 90.2101 1.16304 91.3501 2.16268C92.4694 3.16231 93.0291 4.43108 93.0291 5.96899C93.0291 7.41077 92.4694 8.65071 91.3501 9.68879C90.2101 10.7269 88.8627 11.2459 87.3081 11.2459C85.7534 11.2459 84.4165 10.7269 83.2972 9.68879C82.1778 8.6699 81.6181 7.42999 81.6181 5.96899C81.6181 4.50798 82.1778 3.25843 83.2972 2.22035C84.3957 1.18226 85.7327 0.663221 87.3081 0.663221ZM108.575 13.6393C108.7 13.6393 110.483 13.7547 113.923 13.9854C117.613 14.1968 121.209 14.3025 124.713 14.3025C124.692 14.3794 124.464 15.1003 124.028 16.4651C123.303 18.6951 122.93 20.3484 122.909 21.4249C120.484 20.5406 115.768 19.8198 108.762 19.2622C109.757 21.992 113.011 23.3569 118.525 23.3569C121.427 23.3569 123.417 23.4723 124.495 23.7029C125.532 23.9336 126.35 24.4142 126.951 25.1447C127.531 25.856 127.822 26.8845 127.822 28.2301C127.822 29.672 127.49 31.0849 126.827 32.469C126.122 33.8531 125.303 34.9681 124.37 35.8139C123.417 36.679 121.738 37.4575 119.333 38.1496C116.95 38.8416 114.442 39.1877 111.809 39.1877C107.249 39.1877 103.445 38.3227 100.398 36.5925C100.771 35.4391 101.341 34.0261 102.108 32.3536C105.342 33.6609 109 34.3145 113.084 34.3145C115.24 34.3145 117.23 33.757 119.053 32.642C117.789 31.8154 116.411 31.4021 114.918 31.4021C114.607 31.4021 114.235 31.4117 113.799 31.4309C112.762 31.4694 112.172 31.4886 112.027 31.4886C107.944 31.4886 104.834 30.9215 102.699 29.7873C100.564 28.6723 99.4964 26.7306 99.4964 23.9624C99.4964 21.7709 100.139 19.9351 101.424 18.4548C102.688 16.9939 105.072 15.3887 108.575 13.6393ZM130.526 21.9151L131.366 18.3106C135.533 17.6763 140.311 16.1769 145.699 13.8123V18.8873L145.607 21.0501C145.607 21.3384 145.617 21.598 145.638 21.8287C145.659 22.463 145.669 23.3377 145.669 24.4527C145.669 24.9525 145.68 25.3562 145.699 25.6638L145.917 30.7388C145.959 31.8346 146.114 34.2953 146.384 38.1208C142.114 38.8128 138.403 39.3319 135.252 39.6779C135.543 37.2557 135.688 33.6512 135.688 28.8646L135.564 21.6268C134.693 21.9536 133.76 22.1169 132.765 22.1169C132.019 22.1169 131.273 22.0497 130.526 21.9151ZM139.73 0.663221C141.285 0.663221 142.632 1.16304 143.772 2.16268C144.892 3.16231 145.451 4.43108 145.451 5.96899C145.451 7.41077 144.892 8.65071 143.772 9.68879C142.632 10.7269 141.285 11.2459 139.73 11.2459C138.176 11.2459 136.838 10.7269 135.719 9.68879C134.6 8.6699 134.04 7.42999 134.04 5.96899C134.04 4.50798 134.6 3.25843 135.719 2.22035C136.817 1.18226 138.155 0.663221 139.73 0.663221ZM163.111 19.118C162.013 20.829 161.464 22.5976 161.464 24.4238C161.464 29.4028 164.211 32.4402 169.704 33.5359C170.221 31.6135 170.481 29.7296 170.481 27.8841C170.481 24.9236 169.724 22.7994 168.212 21.5114C166.719 20.2427 165.019 19.4449 163.111 19.118ZM176.451 14.4755L174.771 17.1284C176.326 17.5706 177.591 18.5029 178.565 19.9254C179.56 21.3673 180.058 23.1454 180.058 25.2601C180.058 27.2978 179.633 29.1913 178.782 30.9407C177.912 32.6709 176.989 33.93 176.015 34.7182C175.02 35.5448 173.31 36.5156 170.885 37.6306C170.45 37.8228 169.838 38.1785 169.05 38.6975C168.449 39.1204 167.931 39.4376 167.496 39.649C163.454 39.6298 159.774 38.5726 156.458 36.4772C153.142 34.4394 151.483 31.8635 151.483 28.7492C151.483 23.6741 155.266 18.8105 162.832 14.1583C166.293 14.4467 169.226 14.5909 171.631 14.5909C173.414 14.5909 175.02 14.5524 176.451 14.4755ZM191.375 14.5909L194.36 13.7547V17.5321C194.94 17.2053 195.977 16.6478 197.469 15.8596C197.967 15.6098 198.453 15.3406 198.93 15.0522L201.574 13.5816C203.501 13.8315 204.972 14.1391 205.988 14.5043C206.962 14.8696 207.771 15.4175 208.414 16.148C209.036 16.8592 209.461 17.5802 209.689 18.3106C209.896 18.9643 210 20.0504 210 21.5691C210 23.3761 209.813 25.5099 209.44 27.9706C209.046 30.585 208.828 32.8342 208.787 34.7182L203.035 38.1208L202.164 38.6687C200.506 39.726 199.148 40.4468 198.091 40.8313C199.293 35.5064 199.894 31.3348 199.894 28.3166C199.894 24.6834 199.035 21.4922 197.314 18.7432C197.252 18.8201 196.878 19.1661 196.194 19.7813L195.635 20.358L194.36 21.5402L194.515 38.1208C191.136 38.2169 187.623 38.6783 183.975 39.5049C183.975 38.5053 183.986 37.842 184.006 37.5153C184.047 36.3234 184.068 35.612 184.068 35.3813V34.7182C184.006 33.9108 183.975 33.3437 183.975 33.0169V26.2117C183.975 22.7706 183.913 19.6851 183.789 16.9554C184.058 16.8785 184.369 16.792 184.721 16.6958C185.073 16.5805 185.467 16.4555 185.903 16.321C186.359 16.1865 186.835 16.0326 187.333 15.8596L191.375 14.5909Z" fill="#B7A090"/>
</svg>
