<svg width="212" height="59" viewBox="0 0 212 59" fill="none" xmlns="http://www.w3.org/2000/svg">
<path d="M68.8125 0.6875C73.0208 1.89583 75.6354 2.60417 76.6562 2.8125C77.4479 5.5 77.8438 8.15625 77.8438 10.7812C77.8438 14.0104 77.25 17.0521 76.0625 19.9062C74.8542 20.8646 73.6042 21.9792 72.3125 23.25C71.0417 24.5 69.6042 26.0521 68 27.9062C66.3958 29.7396 64.8229 31.6562 63.2812 33.6562C58.2604 40.1354 53.8229 46.6979 49.9688 53.3438L40.4688 58.125L39.5938 43.625C39.3229 39.1875 38.8333 35.4167 38.125 32.3125C37.4375 29.3542 36.5417 26.8229 35.4375 24.7188C34.375 22.7396 32.8333 20.6146 30.8125 18.3438C23.6667 14.5938 15.8333 12.7188 7.3125 12.7188C5.20833 12.7188 2.97917 12.9062 0.625 13.2812C3.60417 9.09375 5.61458 5.98958 6.65625 3.96875C10.9688 1.82292 15.4167 0.75 20 0.75C24.2917 0.75 28.625 1.63542 33 3.40625C35.1042 4.23958 37.5104 5.46875 40.2188 7.09375C42.9271 8.69792 45.8229 10.6458 48.9062 12.9375C48.9896 14.2708 49.0312 15.25 49.0312 15.875C49.0312 17.1458 48.8021 20.8125 48.3438 26.875C47.9062 32.9375 47.3958 39.4062 46.8125 46.2812C54.1458 36.0729 60.7188 28.8542 66.5312 24.625L66.25 15.2812L60.0625 16.0938C60.5 15.0938 61.3646 13.4479 62.6562 11.1562C63.9688 8.84375 66.0208 5.35417 68.8125 0.6875ZM79.125 24.4375L79.9688 20.5312C84.1562 19.8438 88.9583 18.2188 94.375 15.6562V21.1562L94.2812 23.5C94.2812 23.8125 94.2917 24.0938 94.3125 24.3438C94.3333 25.0312 94.3438 25.9792 94.3438 27.1875C94.3438 27.7292 94.3542 28.1667 94.375 28.5L94.5938 34C94.6354 35.1875 94.7917 37.8542 95.0625 42C90.7708 42.75 87.0417 43.3125 83.875 43.6875C84.1667 41.0625 84.3125 37.1562 84.3125 31.9688L84.1875 24.125C83.3125 24.4792 82.375 24.6562 81.375 24.6562C80.625 24.6562 79.875 24.5833 79.125 24.4375ZM88.375 1.40625C89.9375 1.40625 91.2917 1.94792 92.4375 3.03125C93.5625 4.11458 94.125 5.48958 94.125 7.15625C94.125 8.71875 93.5625 10.0625 92.4375 11.1875C91.2917 12.3125 89.9375 12.875 88.375 12.875C86.8125 12.875 85.4688 12.3125 84.3438 11.1875C83.2188 10.0833 82.6562 8.73958 82.6562 7.15625C82.6562 5.57292 83.2188 4.21875 84.3438 3.09375C85.4479 1.96875 86.7917 1.40625 88.375 1.40625ZM109.75 15.4688C109.875 15.4688 111.667 15.5938 115.125 15.8438C118.833 16.0729 122.448 16.1875 125.969 16.1875C125.948 16.2708 125.719 17.0521 125.281 18.5312C124.552 20.9479 124.177 22.7396 124.156 23.9062C121.719 22.9479 116.979 22.1667 109.938 21.5625C110.938 24.5208 114.208 26 119.75 26C122.667 26 124.667 26.125 125.75 26.375C126.792 26.625 127.615 27.1458 128.219 27.9375C128.802 28.7083 129.094 29.8229 129.094 31.2812C129.094 32.8438 128.76 34.375 128.094 35.875C127.385 37.375 126.562 38.5833 125.625 39.5C124.667 40.4375 122.979 41.2812 120.562 42.0312C118.167 42.7812 115.646 43.1562 113 43.1562C108.417 43.1562 104.594 42.2188 101.531 40.3438C101.906 39.0938 102.479 37.5625 103.25 35.75C106.5 37.1667 110.177 37.875 114.281 37.875C116.448 37.875 118.448 37.2708 120.281 36.0625C119.01 35.1667 117.625 34.7188 116.125 34.7188C115.812 34.7188 115.438 34.7292 115 34.75C113.958 34.7917 113.365 34.8125 113.219 34.8125C109.115 34.8125 105.99 34.1979 103.844 32.9688C101.698 31.7604 100.625 29.6562 100.625 26.6562C100.625 24.2812 101.271 22.2917 102.562 20.6875C103.833 19.1042 106.229 17.3646 109.75 15.4688ZM131.812 24.4375L132.656 20.5312C136.844 19.8438 141.646 18.2188 147.062 15.6562V21.1562L146.969 23.5C146.969 23.8125 146.979 24.0938 147 24.3438C147.021 25.0312 147.031 25.9792 147.031 27.1875C147.031 27.7292 147.042 28.1667 147.062 28.5L147.281 34C147.323 35.1875 147.479 37.8542 147.75 42C143.458 42.75 139.729 43.3125 136.562 43.6875C136.854 41.0625 137 37.1562 137 31.9688L136.875 24.125C136 24.4792 135.062 24.6562 134.062 24.6562C133.312 24.6562 132.562 24.5833 131.812 24.4375ZM141.062 1.40625C142.625 1.40625 143.979 1.94792 145.125 3.03125C146.25 4.11458 146.812 5.48958 146.812 7.15625C146.812 8.71875 146.25 10.0625 145.125 11.1875C143.979 12.3125 142.625 12.875 141.062 12.875C139.5 12.875 138.156 12.3125 137.031 11.1875C135.906 10.0833 135.344 8.73958 135.344 7.15625C135.344 5.57292 135.906 4.21875 137.031 3.09375C138.135 1.96875 139.479 1.40625 141.062 1.40625ZM164.562 21.4062C163.458 23.2604 162.906 25.1771 162.906 27.1562C162.906 32.5521 165.667 35.8438 171.188 37.0312C171.708 34.9479 171.969 32.9062 171.969 30.9062C171.969 27.6979 171.208 25.3958 169.688 24C168.188 22.625 166.479 21.7604 164.562 21.4062ZM177.969 16.375L176.281 19.25C177.844 19.7292 179.115 20.7396 180.094 22.2812C181.094 23.8438 181.594 25.7708 181.594 28.0625C181.594 30.2708 181.167 32.3229 180.312 34.2188C179.438 36.0938 178.51 37.4583 177.531 38.3125C176.531 39.2083 174.812 40.2604 172.375 41.4688C171.938 41.6771 171.323 42.0625 170.531 42.625C169.927 43.0833 169.406 43.4271 168.969 43.6562C164.906 43.6354 161.208 42.4896 157.875 40.2188C154.542 38.0104 152.875 35.2188 152.875 31.8438C152.875 26.3438 156.677 21.0729 164.281 16.0312C167.76 16.3438 170.708 16.5 173.125 16.5C174.917 16.5 176.531 16.4583 177.969 16.375ZM192.969 16.5L195.969 15.5938V19.6875C196.552 19.3333 197.594 18.7292 199.094 17.875C199.594 17.6042 200.083 17.3125 200.562 17L203.219 15.4062C205.156 15.6771 206.635 16.0104 207.656 16.4062C208.635 16.8021 209.448 17.3958 210.094 18.1875C210.719 18.9583 211.146 19.7396 211.375 20.5312C211.583 21.2396 211.688 22.4167 211.688 24.0625C211.688 26.0208 211.5 28.3333 211.125 31C210.729 33.8333 210.51 36.2708 210.469 38.3125L204.688 42L203.812 42.5938C202.146 43.7396 200.781 44.5208 199.719 44.9375C200.927 39.1667 201.531 34.6458 201.531 31.375C201.531 27.4375 200.667 23.9792 198.938 21C198.875 21.0833 198.5 21.4583 197.812 22.125L197.25 22.75L195.969 24.0312L196.125 42C192.729 42.1042 189.198 42.6042 185.531 43.5C185.531 42.4167 185.542 41.6979 185.562 41.3438C185.604 40.0521 185.625 39.2812 185.625 39.0312V38.3125C185.562 37.4375 185.531 36.8229 185.531 36.4688V29.0938C185.531 25.3646 185.469 22.0208 185.344 19.0625C185.615 18.9792 185.927 18.8854 186.281 18.7812C186.635 18.6562 187.031 18.5208 187.469 18.375C187.927 18.2292 188.406 18.0625 188.906 17.875L192.969 16.5Z" fill="#B7A090"/>
</svg>
