<svg width="1440" height="230" viewBox="0 0 1440 230" fill="none" xmlns="http://www.w3.org/2000/svg">
<rect x="651.373" width="24.9015" height="44.7411" rx="5" transform="rotate(90 651.373 0)" fill="#D9D9D9"/>
<rect x="712.037" width="24.9015" height="44.7411" rx="5" transform="rotate(90 712.037 0)" fill="#D9D9D9"/>
<rect x="408.72" y="0.11377" width="24.9015" height="44.7411" rx="5" transform="rotate(90 408.72 0.11377)" fill="#D9D9D9"/>
<rect x="469.383" y="0.11377" width="24.9015" height="44.7411" rx="5" transform="rotate(90 469.383 0.11377)" fill="#D9D9D9"/>
<rect x="530.046" y="0.11377" width="24.9015" height="44.7411" rx="5" transform="rotate(90 530.046 0.11377)" fill="#D9D9D9"/>
<rect x="590.71" y="0.11377" width="24.9015" height="44.7411" rx="5" transform="rotate(90 590.71 0.11377)" fill="#D9D9D9"/>
<rect x="287.393" width="24.9015" height="44.7411" rx="5" transform="rotate(90 287.393 0)" fill="#D9D9D9"/>
<rect x="348.056" width="24.9015" height="44.7411" rx="5" transform="rotate(90 348.056 0)" fill="#D9D9D9"/>
<rect x="44.7389" y="0.11377" width="24.9015" height="44.7411" rx="5" transform="rotate(90 44.7389 0.11377)" fill="#D9D9D9"/>
<rect x="105.402" y="0.11377" width="24.9015" height="44.7411" rx="5" transform="rotate(90 105.402 0.11377)" fill="#D9D9D9"/>
<rect x="166.066" y="0.11377" width="24.9015" height="44.7411" rx="5" transform="rotate(90 166.066 0.11377)" fill="#D9D9D9"/>
<rect x="226.729" y="0.11377" width="24.9015" height="44.7411" rx="5" transform="rotate(90 226.729 0.11377)" fill="#D9D9D9"/>
<rect x="1379.33" width="24.9015" height="44.7411" rx="5" transform="rotate(90 1379.33 0)" fill="#D9D9D9"/>
<rect x="1440" width="24.9015" height="44.7411" rx="5" transform="rotate(90 1440 0)" fill="#D9D9D9"/>
<rect x="1136.68" y="0.114014" width="24.9015" height="44.7411" rx="5" transform="rotate(90 1136.68 0.114014)" fill="#D9D9D9"/>
<rect x="1197.34" y="0.114014" width="24.9015" height="44.7411" rx="5" transform="rotate(90 1197.34 0.114014)" fill="#D9D9D9"/>
<rect x="1258.01" y="0.114014" width="24.9015" height="44.7411" rx="5" transform="rotate(90 1258.01 0.114014)" fill="#D9D9D9"/>
<rect x="1318.67" y="0.114014" width="24.9015" height="44.7411" rx="5" transform="rotate(90 1318.67 0.114014)" fill="#D9D9D9"/>
<rect x="1015.35" width="24.9015" height="44.7411" rx="5" transform="rotate(90 1015.35 0)" fill="#D9D9D9"/>
<rect x="1076.02" width="24.9015" height="44.7411" rx="5" transform="rotate(90 1076.02 0)" fill="#D9D9D9"/>
<rect x="772.7" y="0.11377" width="24.9015" height="44.7411" rx="5" transform="rotate(90 772.7 0.11377)" fill="#D9D9D9"/>
<rect x="833.364" y="0.11377" width="24.9015" height="44.7411" rx="5" transform="rotate(90 833.364 0.11377)" fill="#D9D9D9"/>
<rect x="894.027" y="0.11377" width="24.9015" height="44.7411" rx="5" transform="rotate(90 894.027 0.11377)" fill="#D9D9D9"/>
<rect x="954.69" y="0.114014" width="24.9015" height="44.7411" rx="5" transform="rotate(90 954.69 0.114014)" fill="#D9D9D9"/>
<rect x="651.373" y="204.984" width="24.9015" height="44.7411" rx="5" transform="rotate(90 651.373 204.984)" fill="#D9D9D9"/>
<rect x="712.037" y="204.984" width="24.9015" height="44.7411" rx="5" transform="rotate(90 712.037 204.984)" fill="#D9D9D9"/>
<rect x="408.72" y="205.098" width="24.9015" height="44.7411" rx="5" transform="rotate(90 408.72 205.098)" fill="#D9D9D9"/>
<rect x="469.383" y="205.098" width="24.9015" height="44.7411" rx="5" transform="rotate(90 469.383 205.098)" fill="#D9D9D9"/>
<rect x="530.046" y="205.098" width="24.9015" height="44.7411" rx="5" transform="rotate(90 530.046 205.098)" fill="#D9D9D9"/>
<rect x="590.71" y="205.098" width="24.9015" height="44.7411" rx="5" transform="rotate(90 590.71 205.098)" fill="#D9D9D9"/>
<rect x="287.393" y="204.984" width="24.9015" height="44.7411" rx="5" transform="rotate(90 287.393 204.984)" fill="#D9D9D9"/>
<rect x="348.056" y="204.984" width="24.9015" height="44.7411" rx="5" transform="rotate(90 348.056 204.984)" fill="#D9D9D9"/>
<rect x="44.7389" y="205.098" width="24.9015" height="44.7411" rx="5" transform="rotate(90 44.7389 205.098)" fill="#D9D9D9"/>
<rect x="105.402" y="205.098" width="24.9015" height="44.7411" rx="5" transform="rotate(90 105.402 205.098)" fill="#D9D9D9"/>
<rect x="166.066" y="205.098" width="24.9015" height="44.7411" rx="5" transform="rotate(90 166.066 205.098)" fill="#D9D9D9"/>
<rect x="226.729" y="205.098" width="24.9015" height="44.7411" rx="5" transform="rotate(90 226.729 205.098)" fill="#D9D9D9"/>
<rect x="1379.33" y="204.984" width="24.9015" height="44.7411" rx="5" transform="rotate(90 1379.33 204.984)" fill="#D9D9D9"/>
<rect x="1440" y="204.984" width="24.9015" height="44.7411" rx="5" transform="rotate(90 1440 204.984)" fill="#D9D9D9"/>
<rect x="1136.68" y="205.098" width="24.9015" height="44.7411" rx="5" transform="rotate(90 1136.68 205.098)" fill="#D9D9D9"/>
<rect x="1197.34" y="205.098" width="24.9015" height="44.7411" rx="5" transform="rotate(90 1197.34 205.098)" fill="#D9D9D9"/>
<rect x="1258.01" y="205.098" width="24.9015" height="44.7411" rx="5" transform="rotate(90 1258.01 205.098)" fill="#D9D9D9"/>
<rect x="1318.67" y="205.098" width="24.9015" height="44.7411" rx="5" transform="rotate(90 1318.67 205.098)" fill="#D9D9D9"/>
<rect x="1015.35" y="204.984" width="24.9015" height="44.7411" rx="5" transform="rotate(90 1015.35 204.984)" fill="#D9D9D9"/>
<rect x="1076.02" y="204.984" width="24.9015" height="44.7411" rx="5" transform="rotate(90 1076.02 204.984)" fill="#D9D9D9"/>
<rect x="772.7" y="205.098" width="24.9015" height="44.7411" rx="5" transform="rotate(90 772.7 205.098)" fill="#D9D9D9"/>
<rect x="833.364" y="205.098" width="24.9015" height="44.7411" rx="5" transform="rotate(90 833.364 205.098)" fill="#D9D9D9"/>
<rect x="894.027" y="205.098" width="24.9015" height="44.7411" rx="5" transform="rotate(90 894.027 205.098)" fill="#D9D9D9"/>
<rect x="954.69" y="205.098" width="24.9015" height="44.7411" rx="5" transform="rotate(90 954.69 205.098)" fill="#D9D9D9"/>
</svg>
